<svg id="visual" viewBox="0 0 900 600" width="900" height="600" xmlns="http://www.w3.org/2000/svg" xmlns:xlink="http://www.w3.org/1999/xlink" version="1.1"><rect x="0" y="0" width="900" height="600" fill="#ffffff"></rect><path d="M0 365L21.5 362.2C43 359.3 86 353.7 128.8 347C171.7 340.3 214.3 332.7 257.2 343.2C300 353.7 343 382.3 385.8 383.8C428.7 385.3 471.3 359.7 514.2 341.8C557 324 600 314 642.8 325.2C685.7 336.3 728.3 368.7 771.2 382.8C814 397 857 393 878.5 391L900 389L900 601L878.5 601C857 601 814 601 771.2 601C728.3 601 685.7 601 642.8 601C600 601 557 601 514.2 601C471.3 601 428.7 601 385.8 601C343 601 300 601 257.2 601C214.3 601 171.7 601 128.8 601C86 601 43 601 21.5 601L0 601Z" fill="#cef4ff"></path><path d="M0 428L21.5 423.7C43 419.3 86 410.7 128.8 411.8C171.7 413 214.3 424 257.2 421.2C300 418.3 343 401.7 385.8 398.5C428.7 395.3 471.3 405.7 514.2 402.5C557 399.3 600 382.7 642.8 376C685.7 369.3 728.3 372.7 771.2 388.2C814 403.7 857 431.3 878.5 445.2L900 459L900 601L878.5 601C857 601 814 601 771.2 601C728.3 601 685.7 601 642.8 601C600 601 557 601 514.2 601C471.3 601 428.7 601 385.8 601C343 601 300 601 257.2 601C214.3 601 171.7 601 128.8 601C86 601 43 601 21.5 601L0 601Z" fill="#97d9fb"></path><path d="M0 437L21.5 438.7C43 440.3 86 443.7 128.8 446C171.7 448.3 214.3 449.7 257.2 450.8C300 452 343 453 385.8 454.5C428.7 456 471.3 458 514.2 455.3C557 452.7 600 445.3 642.8 449.3C685.7 453.3 728.3 468.7 771.2 477.8C814 487 857 490 878.5 491.5L900 493L900 601L878.5 601C857 601 814 601 771.2 601C728.3 601 685.7 601 642.8 601C600 601 557 601 514.2 601C471.3 601 428.7 601 385.8 601C343 601 300 601 257.2 601C214.3 601 171.7 601 128.8 601C86 601 43 601 21.5 601L0 601Z" fill="#6cbbf9"></path><path d="M0 557L21.5 555.8C43 554.7 86 552.3 128.8 543.2C171.7 534 214.3 518 257.2 516.8C300 515.7 343 529.3 385.8 538.7C428.7 548 471.3 553 514.2 552.8C557 552.7 600 547.3 642.8 548C685.7 548.7 728.3 555.3 771.2 554.5C814 553.7 857 545.3 878.5 541.2L900 537L900 601L878.5 601C857 601 814 601 771.2 601C728.3 601 685.7 601 642.8 601C600 601 557 601 514.2 601C471.3 601 428.7 601 385.8 601C343 601 300 601 257.2 601C214.3 601 171.7 601 128.8 601C86 601 43 601 21.5 601L0 601Z" fill="#5b99f2"></path></svg>